<mxfile host="app.diagrams.net" modified="2023-09-13T02:00:27.117Z" agent="Mozilla/5.0 (Windows NT 10.0; Win64; x64) AppleWebKit/537.36 (KHTML, like Gecko) Chrome/116.0.0.0 Safari/537.36" version="21.7.4" etag="C9J_jMHPBuTtFeywujhA" type="github">
  <diagram name="Page-1" id="F438eCQQNA2krOPg_CVL">
    <mxGraphModel>
      <root>
        <mxCell id="0" />
        <mxCell id="1" parent="0" />
      </root>
    </mxGraphModel>
  </diagram>
</mxfile>
